<svg xmlns="http://www.w3.org/2000/svg" viewBox="0 0 64 64" width="128" height="128">
  <defs>
    <linearGradient id="g" x1="0" x2="1" y1="0" y2="1">
      <stop offset="0" stop-color="#2563eb"/>
      <stop offset="1" stop-color="#7c3aed"/>
    </linearGradient>
  </defs>
  <rect width="64" height="64" rx="12" fill="url(#g)"/>
  <path d="M32 10c-6 5-12 6-12 6v10c0 11 12 18 12 18s12-7 12-18V16s-6-1-12-6z" fill="#fff" opacity="0.12"/>
  <path d="M32 8c-7 6-14 7-14 7v12c0 13 14 22 14 22s14-9 14-22V15s-7-1-14-7z" fill="none" stroke="#fff" stroke-width="2" stroke-linejoin="round"/>
  <path d="M24 32l4 4 12-12" fill="none" stroke="#fff" stroke-width="3" stroke-linecap="round" stroke-linejoin="round"/>
</svg>